<svg width="15" height="19" viewBox="0 0 15 19" fill="none" xmlns="http://www.w3.org/2000/svg">
<path d="M8.15625 5.5625V11.607L10.7812 8.98197L11.7094 9.91016L7.5 14.1196L3.29057 9.91016L4.21875 8.98197L6.84375 11.607V5.5625H0.773438C0.642901 5.5625 0.517711 5.61436 0.425408 5.70666C0.333105 5.79896 0.28125 5.92415 0.28125 6.05469V18.1953C0.28125 18.3258 0.333105 18.451 0.425408 18.5433C0.517711 18.6356 0.642901 18.6875 0.773438 18.6875H14.2266C14.3571 18.6875 14.4823 18.6356 14.5746 18.5433C14.6669 18.451 14.7188 18.3258 14.7188 18.1953V6.05469C14.7188 5.92415 14.6669 5.79896 14.5746 5.70666C14.4823 5.61436 14.3571 5.5625 14.2266 5.5625H8.15625ZM6.84375 0.3125H8.15625V5.5625H6.84375V0.3125Z" fill="white"/>
</svg>
