<svg width="22" height="22" viewBox="0 0 22 22" fill="none" xmlns="http://www.w3.org/2000/svg">
<path d="M11.6875 6.875V13.2073L14.4375 10.4573L15.4099 11.4297L11 15.8396L6.59012 11.4297L7.5625 10.4573L10.3125 13.2073V6.875H3.95312C3.81637 6.875 3.68522 6.92932 3.58852 7.02602C3.49182 7.12272 3.4375 7.25387 3.4375 7.39062V20.1094C3.4375 20.2461 3.49182 20.3773 3.58852 20.474C3.68522 20.5707 3.81637 20.625 3.95312 20.625H18.0469C18.1836 20.625 18.3148 20.5707 18.4115 20.474C18.5082 20.3773 18.5625 20.2461 18.5625 20.1094V7.39062C18.5625 7.25387 18.5082 7.12272 18.4115 7.02602C18.3148 6.92932 18.1836 6.875 18.0469 6.875H11.6875ZM10.3125 1.375H11.6875V6.875H10.3125V1.375Z" fill="white"/>
</svg>
