<svg width="16" height="16" viewBox="0 0 16 16" fill="none" xmlns="http://www.w3.org/2000/svg">
<path d="M12.8206 12.4887L13.9992 11.31L15.1772 12.4887C15.4104 12.7218 15.5692 13.0187 15.6335 13.3421C15.6979 13.6654 15.6649 14.0005 15.5388 14.3051C15.4126 14.6097 15.199 14.87 14.9249 15.0531C14.6508 15.2363 14.3286 15.3341 13.9989 15.3341C13.6693 15.3341 13.347 15.2363 13.0729 15.0531C12.7988 14.87 12.5852 14.6097 12.4591 14.3051C12.3329 14.0005 12.3 13.6654 12.3643 13.3421C12.4287 13.0187 12.5874 12.7218 12.8206 12.4887ZM5.92058 0.720703L13.4632 8.2627C13.5252 8.32462 13.5744 8.39814 13.6079 8.47908C13.6415 8.56001 13.6588 8.64676 13.6588 8.73437C13.6588 8.82198 13.6415 8.90873 13.6079 8.98966C13.5744 9.07059 13.5252 9.14412 13.4632 9.20603L7.80658 14.8627C7.68156 14.9877 7.51202 15.0579 7.33524 15.0579C7.15847 15.0579 6.98893 14.9877 6.86391 14.8627L1.20724 9.20603C1.14526 9.14412 1.09609 9.07059 1.06254 8.98966C1.02899 8.90873 1.01172 8.82198 1.01172 8.73437C1.01172 8.64676 1.02899 8.56001 1.06254 8.47908C1.09609 8.39814 1.14526 8.32462 1.20724 8.2627L6.39258 3.07737L4.97791 1.66337L5.92191 0.720703H5.92058ZM7.33524 4.0207L2.62124 8.73404H12.0486L7.33524 4.0207Z" fill="black"/>
</svg>
