<svg width="16" height="16" viewBox="0 0 16 16" fill="none" xmlns="http://www.w3.org/2000/svg">
<path d="M12.8206 11.9672L13.9992 10.7886L15.1772 11.9672C15.4104 12.2003 15.5692 12.4973 15.6335 12.8206C15.6979 13.1439 15.6649 13.479 15.5388 13.7836C15.4126 14.0882 15.199 14.3485 14.9249 14.5317C14.6508 14.7148 14.3286 14.8126 13.9989 14.8126C13.6693 14.8126 13.347 14.7148 13.0729 14.5317C12.7988 14.3485 12.5852 14.0882 12.4591 13.7836C12.3329 13.479 12.3 13.1439 12.3643 12.8206C12.4287 12.4973 12.5874 12.2003 12.8206 11.9672ZM5.92058 0.199219L13.4632 7.74122C13.5252 7.80313 13.5744 7.87666 13.6079 7.95759C13.6415 8.03852 13.6588 8.12527 13.6588 8.21288C13.6588 8.30049 13.6415 8.38725 13.6079 8.46818C13.5744 8.54911 13.5252 8.62263 13.4632 8.68455L7.80658 14.3412C7.68156 14.4662 7.51202 14.5364 7.33524 14.5364C7.15847 14.5364 6.98893 14.4662 6.86391 14.3412L1.20724 8.68455C1.14526 8.62263 1.09609 8.54911 1.06254 8.46818C1.02899 8.38725 1.01172 8.30049 1.01172 8.21288C1.01172 8.12527 1.02899 8.03852 1.06254 7.95759C1.09609 7.87666 1.14526 7.80313 1.20724 7.74122L6.39258 2.55589L4.97791 1.14189L5.92191 0.199219H5.92058ZM7.33524 3.49922L2.62124 8.21255H12.0486L7.33524 3.49922Z" fill="black"/>
</svg>
